<?xml version="1.0" encoding="utf-8"?>
<!-- Generator: Adobe Illustrator 19.2.1, SVG Export Plug-In . SVG Version: 6.00 Build 0)  -->
<svg version="1.1" id="Слой_1" xmlns="http://www.w3.org/2000/svg" xmlns:xlink="http://www.w3.org/1999/xlink" x="0px" y="0px"
	 width="33.6px" height="33.6px" viewBox="0 0 33.6 33.6" style="enable-background:new 0 0 33.6 33.6;" xml:space="preserve">
<style type="text/css">
	.st0{fill:#F7A51E;}
</style>
<g id="Shape_3">
	<g>
		<path class="st0" d="M16.8,0C7.6,0,0,7.5,0,16.8c0,9.3,7.5,16.8,16.8,16.8c9.3,0,16.8-7.6,16.8-16.8C33.6,7.5,26.1,0,16.8,0z
			 M16.8,31.3c-8,0-14.5-6.5-14.5-14.5c0-8,6.5-14.5,14.5-14.5c8,0,14.5,6.5,14.5,14.5C31.3,24.8,24.8,31.3,16.8,31.3z M21.6,16.4
			h-4.4V9.5c0-0.7-0.5-1.2-1.2-1.2c-0.7,0-1.2,0.5-1.2,1.2v8.1c0,0.7,0.5,1.2,1.2,1.2h5.6c0.7,0,1.2-0.5,1.2-1.2
			C22.8,16.9,22.3,16.4,21.6,16.4z"/>
	</g>
</g>
</svg>
