<?xml version="1.0" encoding="utf-8"?>
<!-- Generator: Adobe Illustrator 19.2.1, SVG Export Plug-In . SVG Version: 6.00 Build 0)  -->
<svg version="1.1" id="Слой_1" xmlns="http://www.w3.org/2000/svg" xmlns:xlink="http://www.w3.org/1999/xlink" x="0px" y="0px"
	 width="29.9px" height="30px" viewBox="0 0 29.9 30" style="enable-background:new 0 0 29.9 30;" xml:space="preserve">
<style type="text/css">
	.st0{fill:#F7A51E;}
</style>
<g id="Shape_2">
	<g>
		<path class="st0" d="M29.3,8.4H27V0.6C27,0.3,26.8,0,26.4,0h-23C3.1,0,2.9,0.3,2.9,0.6v7.8H0.6C0.3,8.4,0,8.6,0,9v20.4
			c0,0,0,0,0,0c0,0.1,0,0.1,0,0.2c0,0,0,0,0,0c0,0,0,0,0,0.1c0,0,0.1,0.1,0.1,0.1c0,0,0,0,0,0c0,0,0.1,0.1,0.1,0.1c0,0,0,0,0.1,0
			c0.1,0,0.1,0,0.2,0h28.7c0.1,0,0.1,0,0.2,0c0,0,0,0,0.1,0c0,0,0.1,0,0.1-0.1c0,0,0,0,0.1,0c0,0,0.1-0.1,0.1-0.1c0,0,0,0,0-0.1
			c0,0,0,0,0,0c0-0.1,0-0.1,0-0.2c0,0,0,0,0,0V9C29.9,8.6,29.6,8.4,29.3,8.4z M27,9.6h0.7L27,10.2V9.6z M4.1,9V1.2h21.8V9v2.2
			l-9.1,7.4l-1.4-1.1c-0.1-0.1-0.2-0.1-0.4-0.1c0,0,0,0,0,0c-0.1,0-0.1,0-0.2,0s-0.1,0.1-0.2,0.1l-0.4,0.3l-1,0.8l-9.1-7.4V9z
			 M2.9,9.6v0.6L2.1,9.6H2.9z M1.2,10.3l1.9,1.5c0,0,0,0,0,0l0.1,0.1l9,7.4l-11,8.8V10.3z M2.3,28.8l11.2-9c0,0,0,0,0,0l1.4-1.1
			l12.6,10.1H2.3z M28.7,28.2l-11-8.8l9.1-7.4c0,0,0,0,0,0l1.9-1.5V28.2z M7.2,9h15.6c0.3,0,0.6-0.3,0.6-0.6c0-0.3-0.3-0.6-0.6-0.6
			H7.2c-0.3,0-0.6,0.3-0.6,0.6C6.6,8.7,6.8,9,7.2,9z M23.3,12c0-0.3-0.3-0.6-0.6-0.6H7.2c-0.3,0-0.6,0.3-0.6,0.6
			c0,0.3,0.3,0.6,0.6,0.6h15.6C23.1,12.6,23.3,12.3,23.3,12z M7.2,5.4h15.6c0.3,0,0.6-0.3,0.6-0.6c0-0.3-0.3-0.6-0.6-0.6H7.2
			c-0.3,0-0.6,0.3-0.6,0.6C6.6,5.1,6.8,5.4,7.2,5.4z"/>
	</g>
</g>
</svg>
