<?xml version="1.0" encoding="utf-8"?>
<!-- Generator: Adobe Illustrator 19.2.1, SVG Export Plug-In . SVG Version: 6.00 Build 0)  -->
<svg version="1.1" id="Слой_1" xmlns="http://www.w3.org/2000/svg" xmlns:xlink="http://www.w3.org/1999/xlink" x="0px" y="0px"
	 width="30.1px" height="29.9px" viewBox="0 0 30.1 29.9" style="enable-background:new 0 0 30.1 29.9;" xml:space="preserve">
<style type="text/css">
	.st0{fill:#F7A51E;}
</style>
<g id="Shape_1">
	<g>
		<path class="st0" d="M21.4,20.7c-0.9-0.8-2.5-1-3.7-0.5c-1.1,0.5-2.3,0.8-2.5,0.6L9,14.5c-0.2-0.2,0.1-1.3,0.7-2.4c0,0,0,0,0,0
			c0.5-1.1,0.3-2.7-0.5-3.7L6.2,5c-0.4-0.5-1-0.8-1.6-0.8C4,4.2,3.4,4.4,2.9,4.9l-2,2c-1.7,1.7-0.6,4.9-0.3,5.8
			c0.1,0.3,1.2,3.2,7.2,9.3c6,6.1,8.8,7.2,9.2,7.3c0.6,0.2,1.9,0.7,3.2,0.7c0.9,0,1.9-0.2,2.6-0.9l2-2c0.5-0.5,0.7-1.1,0.7-1.7
			c0-0.6-0.3-1.2-0.8-1.6L21.4,20.7z M24,26.1l-2,2c-0.9,1-3,0.6-4.5,0c0,0,0,0,0,0c0,0-2.6-0.8-8.7-7c-6-6.1-6.9-8.8-6.9-8.8
			c0,0,0,0,0,0c-0.6-1.6-1-3.6,0-4.6l2-2C4,5.5,4.3,5.4,4.5,5.4c0,0,0,0,0,0c0.3,0,0.6,0.1,0.8,0.4l2.9,3.4c0.5,0.6,0.7,1.7,0.4,2.4
			c-0.4,0.7-1.4,2.8-0.5,3.8l6.3,6.4c0.9,0.9,3.2-0.1,3.8-0.4c0.7-0.3,1.8-0.1,2.4,0.4l3.4,2.9c0.2,0.2,0.4,0.5,0.4,0.8
			C24.4,25.6,24.2,25.9,24,26.1z M30.1,4.4c0-0.2-0.1-0.3-0.2-0.4l-3.8-3.8c-0.2-0.2-0.6-0.2-0.9,0l-5.2,5.2l-2.2-2.2
			C17.7,3,17.5,2.9,17.2,3c-0.2,0.1-0.4,0.3-0.4,0.6v9c0,0.3,0.3,0.6,0.6,0.6h9.1c0.2,0,0.5-0.1,0.6-0.4c0.1-0.2,0-0.5-0.1-0.7
			L24.7,10L30,4.8C30.1,4.7,30.1,4.5,30.1,4.4z M23.5,9.6c-0.1,0.1-0.2,0.3-0.2,0.4c0,0.2,0.1,0.3,0.2,0.4l1.6,1.6h-7V5l1.6,1.6
			c0.2,0.2,0.6,0.2,0.9,0l5.2-5.2l2.9,2.9L23.5,9.6z"/>
	</g>
</g>
</svg>
