<?xml version="1.0" encoding="utf-8"?>
<!-- Generator: Adobe Illustrator 19.2.1, SVG Export Plug-In . SVG Version: 6.00 Build 0)  -->
<svg version="1.1" xmlns="http://www.w3.org/2000/svg" xmlns:xlink="http://www.w3.org/1999/xlink" x="0px" y="0px" width="93.8px"
	 height="29.2px" viewBox="0 0 93.8 29.2" style="enable-background:new 0 0 93.8 29.2;" xml:space="preserve">
<style type="text/css">
	.st0{enable-background:new    ;}
	.st1{fill:#fff;}
	.st2{fill:#fff;}
	.st3{fill:#fff;}
</style>
<g id="Background_xA0_Изображение_1_">
</g>
<g id="obitrade_1_" class="st0">
	<g id="obitrade">
		<g>
			<path class="st1" d="M55.7,7.9l-1,0.4V10h-1.6v0.8h1.6v6.1c0,1,0.2,1.8,0.6,2.3c0.4,0.4,0.9,0.7,1.6,0.7c0.6,0,1-0.1,1.3-0.2
				l-0.1-0.7c-0.2,0.1-0.6,0.1-1.1,0.1c-1,0-1.4-0.8-1.4-2v-6.3h2.8V10h-2.8V7.9z M61.5,12L61.5,12L61.4,10h-0.9
				c0.1,0.9,0.1,1.9,0.1,2.9v6.7h1v-5.3c0-0.3,0-0.6,0.1-0.9c0.3-1.5,1.2-2.7,2.5-2.7c0.2,0,0.3,0,0.5,0V9.8c-0.1,0-0.3,0-0.4,0
				C62.9,9.8,61.9,10.8,61.5,12z M72.5,13.6c0-1.7-0.5-3.8-3.3-3.8c-0.9,0-1.9,0.2-2.8,0.8l0.3,0.7c0.7-0.5,1.6-0.7,2.4-0.7
				c2.3,0,2.5,1.9,2.5,2.8v0.3c-3.9,0-5.9,1.3-5.9,3.5c0,1.3,0.9,2.7,2.8,2.7c1.5,0,2.6-0.9,3.1-1.6h0l0.1,1.4h0.9
				c-0.1-0.7-0.1-1.5-0.1-2.3V13.6z M71.6,16.6c0,0.2,0,0.4-0.1,0.6c-0.3,0.9-1.2,1.9-2.9,1.9c-1,0-1.9-0.6-1.9-2
				c0-2.3,2.8-2.6,4.9-2.6V16.6z M83.3,5.4h-1v6.1h0c-0.4-0.8-1.5-1.7-3.2-1.7c-2.4,0-4.4,2-4.3,5.2c0,2.9,1.8,4.9,4.2,4.9
				c1.8,0,2.9-1,3.4-2h0l0.1,1.8h0.9c-0.1-0.7-0.1-1.5-0.1-2.2V5.4z M82.4,15.8c0,0.3,0,0.6-0.1,0.8c-0.4,1.6-1.7,2.5-3.1,2.5
				c-2.3,0-3.4-2-3.4-4.2c0-2.5,1.3-4.3,3.4-4.3c1.6,0,2.7,1.1,3,2.3c0.1,0.3,0.1,0.6,0.1,0.9V15.8z M93.8,14.2
				c0-1.4-0.6-4.4-3.8-4.4c-2.5,0-4.3,2-4.3,5.2c0,2.8,1.7,4.8,4.5,4.8c1.7,0,2.7-0.4,3-0.6L93,18.5c-0.5,0.3-1.3,0.5-2.7,0.5
				c-2,0-3.7-1.2-3.7-4.3h7.1C93.8,14.6,93.8,14.4,93.8,14.2z M86.8,14c0.2-1.5,1.1-3.4,3.2-3.4c2.3,0,2.9,2,2.9,3.4H86.8z"/>
		</g>
	</g>
</g>
<g id="obitrade_copy_1_" class="st0">
	<g id="obitrade_copy">
		<g>
			<path class="st2" d="M28.9,9.6c-3.4,0-5.4,2.1-5.4,5.2c0,3.2,2.3,5.1,5.2,5.1h0c2.8,0,5.3-1.7,5.3-5.3C34,11.7,32,9.6,28.9,9.6z
				 M28.8,17.3L28.8,17.3c-1.1,0-1.6-1.1-1.6-2.6c0-1.3,0.4-2.6,1.6-2.6c1.1,0,1.5,1.2,1.5,2.6C30.3,16.3,29.7,17.3,28.8,17.3z
				 M42.2,9.6c-1.3,0-2.2,0.5-2.8,1.2h0V5.4h-3.6v11.2c0,1.2,0,2.5-0.1,3.1h3.1l0.1-1.3h0c0.7,1.1,1.8,1.5,2.8,1.5
				c2.3,0,4.5-1.8,4.5-5.4C46.3,11.5,44.6,9.6,42.2,9.6z M40.8,17.1c-0.7,0-1.3-0.5-1.4-1.2c0-0.1,0-0.3,0-0.5V14c0-0.2,0-0.3,0-0.5
				c0.1-0.7,0.7-1.2,1.4-1.2c1.2,0,1.7,1,1.7,2.3C42.6,16.3,41.9,17.1,40.8,17.1z M49.8,8.8L49.8,8.8c1.1,0,1.9-0.8,1.9-1.7
				c0-1-0.7-1.7-1.8-1.7c-1.1,0-1.8,0.7-1.8,1.7C48,8,48.7,8.8,49.8,8.8z M48,19.7h3.6V9.8H48V19.7z"/>
		</g>
	</g>
</g>
<g id="store__x26__service_1_" class="st0">
	<g id="store__x26__service">
		<g>
			<path class="st3" d="M37.2,26.2c-0.4-0.2-0.6-0.3-0.6-0.6c0-0.3,0.2-0.5,0.6-0.5c0.3,0,0.6,0.1,0.7,0.2l0.2-0.4
				c-0.2-0.1-0.5-0.2-0.8-0.2c-0.7,0-1.2,0.4-1.2,1c0,0.4,0.3,0.7,0.9,1c0.5,0.2,0.6,0.3,0.6,0.6c0,0.3-0.2,0.5-0.7,0.5
				c-0.3,0-0.6-0.1-0.8-0.2L35.8,28c0.2,0.1,0.6,0.2,1,0.2c0.8,0,1.3-0.4,1.3-1C38.1,26.7,37.8,26.4,37.2,26.2z M39.6,23.8L39,24
				v0.8h-0.5v0.5H39v1.9c0,0.4,0.1,0.7,0.2,0.9c0.1,0.2,0.4,0.3,0.7,0.3c0.2,0,0.4,0,0.5-0.1l0-0.5c-0.1,0-0.2,0-0.4,0
				c-0.3,0-0.5-0.2-0.5-0.7v-1.8h0.9v-0.5h-0.9V23.8z M42.6,24.7c-0.9,0-1.7,0.7-1.7,1.8c0,1.1,0.7,1.8,1.6,1.8
				c0.8,0,1.7-0.5,1.7-1.8C44.2,25.4,43.6,24.7,42.6,24.7z M42.6,27.8c-0.6,0-1-0.6-1-1.3c0-0.6,0.3-1.3,1-1.3s1,0.7,1,1.3
				C43.6,27.2,43.2,27.8,42.6,27.8z M45.6,25.5L45.6,25.5l0-0.7H45c0,0.3,0,0.7,0,1.1v2.3h0.6v-1.8c0-0.1,0-0.2,0-0.3
				c0.1-0.5,0.4-0.8,0.8-0.8c0.1,0,0.1,0,0.2,0v-0.6c-0.1,0-0.1,0-0.2,0C46.1,24.7,45.7,25,45.6,25.5z M48.6,24.7
				c-1,0-1.6,0.8-1.6,1.8c0,1,0.6,1.7,1.7,1.7c0.5,0,0.9-0.1,1.1-0.2l-0.1-0.4c-0.2,0.1-0.5,0.2-0.9,0.2c-0.6,0-1.2-0.3-1.2-1.2H50
				c0-0.1,0-0.2,0-0.3C50,25.7,49.7,24.7,48.6,24.7z M47.6,26.2c0-0.4,0.3-1,0.9-1c0.7,0,0.9,0.6,0.9,1H47.6z M55.9,25.6h-0.6
				c-0.1,0.6-0.2,1.1-0.5,1.4c-0.3-0.3-0.8-0.9-1.2-1.3v0c0.8-0.4,1-0.8,1-1.3c0-0.6-0.5-1-1-1c-0.8,0-1.2,0.6-1.2,1.2
				c0,0.3,0.1,0.7,0.4,1v0c-0.5,0.3-0.9,0.7-0.9,1.4c0,0.7,0.5,1.3,1.5,1.3c0.5,0,1-0.2,1.4-0.5c0.2,0.2,0.3,0.3,0.4,0.5H56
				c-0.3-0.3-0.5-0.6-0.8-0.8C55.5,26.9,55.8,26.3,55.9,25.6z M53.7,23.8c0.4,0,0.5,0.3,0.5,0.6c0,0.4-0.3,0.7-0.8,0.9
				c-0.2-0.3-0.4-0.5-0.4-0.9C53.1,24.1,53.3,23.8,53.7,23.8z M53.5,27.8c-0.6,0-1-0.4-1-1c0-0.5,0.4-0.8,0.6-1
				c0.5,0.6,1.1,1.2,1.3,1.5C54.3,27.6,53.9,27.8,53.5,27.8z M59.1,26.2c-0.4-0.2-0.6-0.3-0.6-0.6c0-0.3,0.2-0.5,0.6-0.5
				c0.3,0,0.6,0.1,0.7,0.2l0.2-0.4c-0.2-0.1-0.5-0.2-0.8-0.2c-0.7,0-1.2,0.4-1.2,1c0,0.4,0.3,0.7,0.9,1c0.5,0.2,0.6,0.3,0.6,0.6
				c0,0.3-0.2,0.5-0.7,0.5c-0.3,0-0.6-0.1-0.8-0.2L57.8,28c0.2,0.1,0.6,0.2,1,0.2c0.8,0,1.3-0.4,1.3-1C60,26.7,59.7,26.4,59.1,26.2z
				 M62.1,24.7c-1,0-1.6,0.8-1.6,1.8c0,1,0.6,1.7,1.7,1.7c0.5,0,0.9-0.1,1.1-0.2l-0.1-0.4c-0.2,0.1-0.5,0.2-0.9,0.2
				c-0.6,0-1.2-0.3-1.2-1.2h2.4c0-0.1,0-0.2,0-0.3C63.5,25.7,63.2,24.7,62.1,24.7z M61.1,26.2c0-0.4,0.3-1,0.9-1
				c0.7,0,0.9,0.6,0.9,1H61.1z M64.9,25.5L64.9,25.5l0-0.7h-0.5c0,0.3,0,0.7,0,1.1v2.3h0.6v-1.8c0-0.1,0-0.2,0-0.3
				c0.1-0.5,0.4-0.8,0.8-0.8c0.1,0,0.1,0,0.2,0v-0.6c-0.1,0-0.1,0-0.2,0C65.4,24.7,65,25,64.9,25.5z M68.3,26.7
				c-0.1,0.3-0.2,0.6-0.3,0.9h0c-0.1-0.3-0.2-0.6-0.3-0.9L67,24.8h-0.7l1.3,3.4h0.6l1.3-3.4h-0.6L68.3,26.7z M70.5,23.4
				c-0.2,0-0.4,0.2-0.4,0.4c0,0.2,0.2,0.4,0.4,0.4c0.2,0,0.4-0.2,0.4-0.4C70.9,23.6,70.7,23.4,70.5,23.4z M70.2,28.2h0.6v-3.4h-0.6
				V28.2z M73.4,25.2c0.3,0,0.6,0.1,0.7,0.2l0.1-0.5c-0.2-0.1-0.5-0.2-0.9-0.2c-1.1,0-1.8,0.8-1.8,1.8c0,1,0.7,1.7,1.7,1.7
				c0.5,0,0.8-0.1,1-0.2l-0.1-0.5c-0.2,0.1-0.4,0.2-0.8,0.2c-0.7,0-1.2-0.5-1.2-1.3C72.2,25.8,72.6,25.2,73.4,25.2z M77.7,26.3
				c0-0.6-0.3-1.6-1.4-1.6c-1,0-1.6,0.8-1.6,1.8c0,1,0.6,1.7,1.7,1.7c0.5,0,0.9-0.1,1.1-0.2l-0.1-0.4c-0.2,0.1-0.5,0.2-0.9,0.2
				c-0.6,0-1.2-0.3-1.2-1.2h2.4C77.7,26.5,77.7,26.4,77.7,26.3z M75.3,26.2c0-0.4,0.3-1,0.9-1c0.7,0,0.9,0.6,0.9,1H75.3z"/>
		</g>
	</g>
</g>
<g id="Ellipse_1_1_" class="st0">
</g>
<g id="M_1_" class="st0">
	<g>
		<path class="st2" d="M4,8.2C4.3,6,3.3,5.9,3.1,5.7C1.2,8.1,0,11.2,0,14.6c0,2.3,0.6,4.6,1.6,6.5C2,18.7,4,8.3,4,8.2z"/>
		<path class="st2" d="M7.1,3.6c2.3,0,3.1,1.7,3.9,3.7c0.9,2.1,1.6,4.7,1.6,4.7l5.5-7.5c0.1-0.1,0.2-0.1,0.2-0.1H23
			c0,0,0.1,0,0.1,0.1l-1.2,7.2c1-2.2,3-3.8,5.4-4.2C24.7,3,20,0,14.6,0C10.5,0,6.8,1.7,4.1,4.4C4.9,4,6.1,3.6,7.1,3.6z"/>
		<path class="st2" d="M21.2,15.4l-1.1,6.2c0,0.1-0.2,0.1-0.2,0.1s-3.1,2.3-5,0c0,0,0,0-0.1-0.1l1.4-7.8l0.9-2.5
			c-0.4,0.5-5.1,7.3-5.1,7.3c-0.1,0.1-0.2,0.1-0.3,0.1h-0.7c-0.3,0-0.3,0-0.3-0.1l-2.7-7.4l0.1,2.3l-1.3,8.1c2.3-1.9,0,0,0,0l0,0
			c-0.1,0-0.1,0.1-0.1,0.1c-1.9,1.6-3.7,0.9-4.6,0.4c2.6,4.2,7.2,7.1,12.5,7.1c5.3,0,10-2.9,12.5-7.2C24,21.3,21.5,18.7,21.2,15.4z"
			/>
	</g>
</g>
</svg>
